<?xml version="1.0" encoding="utf-8"?>
<!-- Generator: Adobe Illustrator 24.2.1, SVG Export Plug-In . SVG Version: 6.00 Build 0)  -->
<svg version="1.1" id="donate-icon" xmlns="http://www.w3.org/2000/svg" xmlns:xlink="http://www.w3.org/1999/xlink" x="0px" y="0px"
	 viewBox="0 0 186 230.9" style="enable-background:new 0 0 186 230.9;" xml:space="preserve">
<style type="text/css">
	#donate-icon .st0{fill:none;stroke:#FFFFFF;stroke-width:8;stroke-linecap:round;stroke-miterlimit:10;}
	#donate-icon .st1{fill:#FFFFFF;}
</style>
<circle class="st0" cx="71.4" cy="49.6" r="17.5"/>
<circle class="st0" cx="22.7" cy="22.6" r="17.5"/>
<line class="st0" x1="32" y1="97.5" x2="180.6" y2="97.5"/>
<path class="st0" d="M80.1,96.6c0-0.8,0.1-1.6,0.2-2.4C82.1,84,91.8,77.1,102,78.9c8.6,1.5,15,8.6,15.6,17.3"/>
<path class="st1" d="M103.3,142.1v-2.7c0-1.8,1.4-3.2,3.2-3.2c0,0,0,0,0,0c1.7,0,3.1,1.4,3.1,3.1c0,0,0,0.1,0,0.1v2.7
	c2.3,0.2,4.6,0.8,6.7,1.7c1.8,0.7,3.2,1.9,3.2,3.8c0,1.7-1.3,3-2.9,3.1c0,0-0.1,0-0.1,0c-1.4-0.2-2.7-0.6-4-1.2
	c-1.9-0.8-3.9-1.2-6-1.2c-4,0-5.9,1.5-5.9,3.9c0,3.3,3.5,4.4,7.6,6.1c5.3,2.2,11.7,5.2,11.7,12.9c0,5.9-3.7,10-10.3,10.9v2.7
	c0,1.7-1.3,3.2-3.1,3.2c0,0,0,0-0.1,0c-1.8,0-3.2-1.4-3.2-3.2v-2.6c-2.3-0.2-4.6-0.7-6.8-1.6c-1.8-0.7-3.2-1.9-3.2-3.8
	c-0.1-1.7,1.2-3.1,2.9-3.1c0,0,0.1,0,0.1,0c1,0,2.5,0.8,4,1.3c2,0.8,4.1,1.2,6.2,1.2c4,0,6.3-1.8,6.3-4.8c0-3.7-4.3-5.5-8.6-7.3
	c-5.3-2.2-10.7-4.5-10.7-11.8C93.4,147,96.8,143.1,103.3,142.1z"/>
<path class="st0" d="M160.3,97.8H53.8c-1.6,0-2.9,1.9-2.9,4.4L31.3,221.6c0,2.4,1.3,4.4,2.9,4.4h141.2c1.6,0,2.9-2,2.9-4.4
	l-15.1-119.4C163.2,99.8,161.9,97.8,160.3,97.8z"/>
</svg>
