<svg xmlns="http://www.w3.org/2000/svg" xmlns:xlink="http://www.w3.org/1999/xlink" width="697.5" height="209.912" viewBox="0 0 697.5 209.912">
  <defs>
    <clipPath id="clip-path">
      <rect id="Rectangle_12" data-name="Rectangle 12" width="697.5" height="209.912" fill="none"/>
    </clipPath>
  </defs>
  <g id="Group_10" data-name="Group 10" transform="translate(-8.512 -5.192)">
    <path id="Path_3" data-name="Path 3" d="M275.482,5.192V67.723h31.27Z" transform="translate(399.261 0)" fill="#a3a6a8"/>
    <g id="Group_3" data-name="Group 3" transform="translate(8.512 5.192)">
      <g id="Group_2" data-name="Group 2" clip-path="url(#clip-path)">
        <path id="Path_4" data-name="Path 4" d="M706.012,177.629V30.251H27.019s-18.507,0-18.507,18.5V159.12s0,18.509,18.507,18.509Z" transform="translate(-8.513 32.283)" fill="#fff"/>
      </g>
    </g>
    <g id="Group_6" data-name="Group 6" transform="translate(28.348 85.755)">
      <g id="Group_4" data-name="Group 4">
        <path id="Path_5" data-name="Path 5" d="M36.61,37.475H51.635L45.3,88.459q-2.433,20.846-19.63,20.845a36.315,36.315,0,0,1-9.206-1.39l1.65-10.771a35.505,35.505,0,0,0,5.56.522q3.732,0,4.864-2.171,1.213-2.343,2-8.6Z" transform="translate(-16.461 -37.475)" fill="#22428c"/>
      </g>
      <g id="Group_5" data-name="Group 5" transform="translate(38.254 2.952)">
        <path id="Path_6" data-name="Path 6" d="M81.873,68.743q-1.561,12.424-7.21,20.586-6.513,9.381-21.452,9.381A28.519,28.519,0,0,1,43,97.06a14.9,14.9,0,0,1-6.556-4.519,21.545,21.545,0,0,1-3.519-6.686A23.592,23.592,0,0,1,31.8,77.69q.127-4.342.564-8.946A49.289,49.289,0,0,1,37.23,51.634q6.861-12.941,23.625-12.942a29.087,29.087,0,0,1,10.334,1.652,14.556,14.556,0,0,1,6.558,4.517,22.139,22.139,0,0,1,3.474,6.686,24.556,24.556,0,0,1,1.173,8.208Q82.308,64.141,81.873,68.743ZM48.737,84.073q2.04,2.392,6.124,2.388a9.519,9.519,0,0,0,6.775-2.518A14.758,14.758,0,0,0,65.2,78.211a50.622,50.622,0,0,0,1.912-9.468,83.566,83.566,0,0,0,.477-9.206A10.177,10.177,0,0,0,65.5,52.979q-2.044-2.474-6.211-2.473a9.242,9.242,0,0,0-8.946,5.47q-2.171,4.518-3.212,12.767a79.784,79.784,0,0,0-.479,8.989A9.6,9.6,0,0,0,48.737,84.073Z" transform="translate(-31.79 -38.607)" fill="#22428c"/>
        <path id="Path_7" data-name="Path 7" d="M72.323,61.17H88.479l2.778-22.06H106.37L99.247,97.129H84.137l2.952-24.144H70.933L67.981,97.129H52.868L59.99,39.11H75.1Z" transform="translate(-0.267 -37.982)" fill="#22428c"/>
        <path id="Path_8" data-name="Path 8" d="M131.978,39.11l-7.122,58.019h-15.2L93.24,62.735,89.073,97.129H74.656l7.12-58.019H96.889l16.243,34.306,4.255-34.306Z" transform="translate(32.317 -37.982)" fill="#22428c"/>
        <path id="Path_9" data-name="Path 9" d="M141.2,96.311l6.863-55.845A118.2,118.2,0,0,1,164.737,38.9a42.211,42.211,0,0,1,8.123.7,21.923,21.923,0,0,1,6.466,2.343,9.738,9.738,0,0,1,4.3,4.779,14.912,14.912,0,0,1,.829,7.641q-.958,7.558-6.341,11.2,8.16,3.736,6.945,13.723a20.472,20.472,0,0,1-6.164,12.854q-5.911,5.731-20.673,5.732A107.739,107.739,0,0,1,141.2,96.311ZM162.476,71.9h-3.124l-1.737,13.985a29.342,29.342,0,0,0,3.561.175q8.422,0,9.3-7.122.43-3.65-1.477-5.343T162.476,71.9Zm-.953-21.8-1.39,11.464h2.258q6.6,0,7.382-6.254.344-2.778-1.043-4.125t-4.512-1.345A17.838,17.838,0,0,0,161.523,50.106Z" transform="translate(131.834 -38.295)" fill="#22428c"/>
        <path id="Path_10" data-name="Path 10" d="M199.94,39.11l11.207,58.019H196.12L193.6,83.84H179.01l-5.473,13.289h-15.46L184.134,39.11ZM183.612,72.722h8.165L189.694,57Z" transform="translate(157.077 -37.982)" fill="#22428c"/>
        <path id="Path_11" data-name="Path 11" d="M231.466,39.11,226.95,75.5q-1.475,11.814-7.207,17.2-5.821,5.387-18.152,5.385-11.9,0-16.5-5.385T181.96,75.5l4.514-36.392h15.377L197.42,75.068q-.782,5.731.262,8.338t5.558,2.605q4.256,0,5.994-2.346t2.516-8.6l4.432-35.958Z" transform="translate(192.257 -37.982)" fill="#22428c"/>
        <path id="Path_12" data-name="Path 12" d="M216.836,50.749H201.895l1.477-11.639h45.511l-1.475,11.639H232.033l-5.645,46.379h-15.2Z" transform="translate(222.607 -37.982)" fill="#22428c"/>
        <path id="Path_13" data-name="Path 13" d="M236.026,85.315h24.666L259.3,97.129H219.436l7.122-58.019h39.085l-1.477,11.726H240.281l-1.3,10.509H261.56L260.17,72.81H237.588Z" transform="translate(248.84 -37.982)" fill="#22428c"/>
        <path id="Path_14" data-name="Path 14" d="M253.186,97.493h-15.2l6.948-56.716a91.874,91.874,0,0,1,19.2-1.912q9.725,0,15.288,3.648,6.772,4.256,5.211,16.156-1.565,13.461-12.508,17.89l10.943,20.932H266.734l-8.859-19.368c-1.043-.117-1.824-.232-2.346-.349ZM259,49.984l-2.171,17.631c2.431.175,3.678.262,3.736.262a9.715,9.715,0,0,0,6.471-1.954q2.3-1.954,3-6.905,1.127-9.2-7.21-9.209A35.674,35.674,0,0,0,259,49.984Z" transform="translate(276.582 -38.347)" fill="#22428c"/>
        <path id="Path_15" data-name="Path 15" d="M256.815,94.243l3.474-11.9a31.928,31.928,0,0,0,16.675,5.123,7.748,7.748,0,0,0,4.994-1.562,6.106,6.106,0,0,0,2.3-4.083,5.608,5.608,0,0,0-1.086-4.6,15.839,15.839,0,0,0-5.515-3.212l-4.6-1.824-3.906-1.912a13.374,13.374,0,0,1-7.472-14.679q1.044-8.336,7.382-12.592a25.459,25.459,0,0,1,14.591-4.342q10.421,0,17.022,4.861l-3.733,11.639a19.816,19.816,0,0,0-6.079-2.952,22.294,22.294,0,0,0-7.816-1.565q-6.169,0-6.863,4.951a4.1,4.1,0,0,0,1.52,3.823,25.133,25.133,0,0,0,6.558,3.3q15.894,5.993,14.419,18.24a18.4,18.4,0,0,1-7.21,13.029,23.392,23.392,0,0,1-14.938,4.861Q264.542,98.845,256.815,94.243Z" transform="translate(304.741 -38.658)" fill="#22428c"/>
      </g>
    </g>
    <g id="Group_7" data-name="Group 7" transform="translate(139.519 164.843)">
      <path id="Path_16" data-name="Path 16" d="M76.763,69.762v2.967H64.535v8.537H76.079v2.967H64.535V96.539H61.009V69.762Z" transform="translate(-61.009 -68.277)" fill="#22428c"/>
      <path id="Path_17" data-name="Path 17" d="M77.5,93.4q-4.69,0-6.815-2.446T68.558,82.82q0-5.491,2.306-8.038T77.7,72.236q4.529,0,6.715,2.506T86.6,82.777Q86.6,93.4,77.5,93.4Zm.12-18.439a5.065,5.065,0,0,0-4.048,1.724q-1.482,1.722-1.485,6.134,0,4.166,1.345,6.012a5.382,5.382,0,0,0,8.2-.1q1.441-1.947,1.442-5.912,0-4.571-1.363-6.176A4.957,4.957,0,0,0,77.617,74.961Z" transform="translate(-49.719 -64.577)" fill="#22428c"/>
      <path id="Path_18" data-name="Path 18" d="M88,72.534l-.442,3A9.632,9.632,0,0,0,85.4,75.3a6.593,6.593,0,0,0-4.41,1.2V92.7H77.617V72.572h2.927l.282,1.927a6.909,6.909,0,0,1,5.33-2.166A9.384,9.384,0,0,1,88,72.534Z" transform="translate(-36.171 -64.434)" fill="#22428c"/>
      <path id="Path_19" data-name="Path 19" d="M89.8,93.574h12.667v2.965H86.276V69.762H102.03v2.967H89.8v8.537h11.584v2.967H89.8Z" transform="translate(-23.222 -68.277)" fill="#22428c"/>
      <path id="Path_20" data-name="Path 20" d="M94.628,92.863V74.344a22.516,22.516,0,0,1,8.979-2.124q3.609,0,5.253,1.762a15.169,15.169,0,0,1,6.975-1.762,7.83,7.83,0,0,1,5.271,1.522q1.744,1.524,1.744,5.211v13.91h-3.329V79.554c0-1.707-.339-2.88-1.021-3.506a4.931,4.931,0,0,0-3.386-.943,10.85,10.85,0,0,0-4.851,1.123,9.829,9.829,0,0,1,.319,2.725v13.91h-3.327V79.554c0-1.707-.339-2.88-1.021-3.506a4.934,4.934,0,0,0-3.389-.943,9.793,9.793,0,0,0-4.851,1.123V92.863Z" transform="translate(-10.731 -64.601)" fill="#22428c"/>
      <path id="Path_21" data-name="Path 21" d="M117.27,93.377q-9.583,0-9.583-10.663a12.118,12.118,0,0,1,2.286-7.414,7.851,7.851,0,0,1,6.7-3.047q4.005,0,6.072,1.984a7.445,7.445,0,0,1,2.066,5.632,19.72,19.72,0,0,1-.322,3.087H111.256q0,3.927,1.8,5.752t5.493,1.822a12.683,12.683,0,0,0,5.131-1l.439,2.765A18.913,18.913,0,0,1,117.27,93.377ZM116.788,74.9a5.17,5.17,0,0,0-2.605.641,4.721,4.721,0,0,0-1.7,1.562,8.277,8.277,0,0,0-.861,1.764,4.7,4.7,0,0,0-.282,1.442h9.982a4.041,4.041,0,0,0,.04-.721,4.73,4.73,0,0,0-1.2-3.466A4.5,4.5,0,0,0,116.788,74.9Z" transform="translate(8.799 -64.553)" fill="#22428c"/>
      <path id="Path_22" data-name="Path 22" d="M126.694,72.534l-.439,3a9.654,9.654,0,0,0-2.166-.242,6.6,6.6,0,0,0-4.41,1.2V92.7h-3.366V72.572h2.927l.28,1.927a6.918,6.918,0,0,1,5.333-2.166A9.341,9.341,0,0,1,126.694,72.534Z" transform="translate(21.7 -64.434)" fill="#22428c"/>
      <path id="Path_23" data-name="Path 23" d="M128.612,92.752h-.963l-7.015-20.324H124.2l5.573,16.96,5.051-16.92h3.566L132.3,91.229q-1.441,5.053-3.506,7.277a6.832,6.832,0,0,1-5.231,2.226,7.61,7.61,0,0,1-2.765-.564l.4-2.326a8.841,8.841,0,0,0,2.164.242,4.34,4.34,0,0,0,3.449-1.6A8.246,8.246,0,0,0,128.612,92.752Z" transform="translate(28.162 -64.29)" fill="#22428c"/>
      <path id="Path_24" data-name="Path 24" d="M137.1,88.983l5.293-16.555H146l-6.9,20.124h-4.048L128.2,72.428h3.768Z" transform="translate(39.476 -64.29)" fill="#22428c"/>
      <path id="Path_25" data-name="Path 25" d="M139.849,73.337H136.52v-4.17h3.329ZM136.52,77.3h3.329V97.429H136.52Z" transform="translate(51.92 -69.167)" fill="#22428c"/>
      <path id="Path_26" data-name="Path 26" d="M139.845,93.3V69.248h3.449v23.81q0,1.965,1.8,1.964a8.431,8.431,0,0,0,2.406-.442l.4,2.568a11.1,11.1,0,0,1-3.646.721Q139.844,97.869,139.845,93.3Z" transform="translate(56.892 -69.046)" fill="#22428c"/>
      <path id="Path_27" data-name="Path 27" d="M144.262,93.3V69.248h3.449v23.81q0,1.965,1.8,1.964a8.431,8.431,0,0,0,2.406-.442l.4,2.568a11.1,11.1,0,0,1-3.646.721Q144.261,97.869,144.262,93.3Z" transform="translate(63.498 -69.046)" fill="#22428c"/>
      <path id="Path_28" data-name="Path 28" d="M157.861,93.377q-9.586,0-9.583-10.663a12.118,12.118,0,0,1,2.286-7.414,7.843,7.843,0,0,1,6.693-3.047q4.013,0,6.072,1.984a7.435,7.435,0,0,1,2.066,5.632,19.665,19.665,0,0,1-.319,3.087H151.847q0,3.927,1.8,5.752c1.205,1.215,3.032,1.822,5.5,1.822a12.692,12.692,0,0,0,5.131-1l.439,2.765A18.9,18.9,0,0,1,157.861,93.377ZM157.379,74.9a5.157,5.157,0,0,0-2.605.641,4.7,4.7,0,0,0-1.7,1.562,8.414,8.414,0,0,0-.863,1.764,4.763,4.763,0,0,0-.28,1.442h9.98a3.452,3.452,0,0,0,.045-.721,4.741,4.741,0,0,0-1.205-3.466A4.507,4.507,0,0,0,157.379,74.9Z" transform="translate(69.504 -64.553)" fill="#22428c"/>
      <path id="Path_29" data-name="Path 29" d="M163.79,83.287q0,6.3,2.084,8.739,2.122,2.486,6.294,2.486a35.255,35.255,0,0,0,5.972-.644l.362,2.807a27.974,27.974,0,0,1-6.7.761q-6.135,0-8.979-3.808-2.807-3.807-2.807-10.3a21.518,21.518,0,0,1,.664-5.61,12.472,12.472,0,0,1,1.742-3.968,9.09,9.09,0,0,1,2.628-2.486,10.533,10.533,0,0,1,3.164-1.345,15.267,15.267,0,0,1,3.469-.379,22.647,22.647,0,0,1,6.975,1.043l-.6,2.725a22.16,22.16,0,0,0-6.254-.881,7.338,7.338,0,0,0-5.892,2.483Q163.787,77.4,163.79,83.287Z" transform="translate(87.063 -68.614)" fill="#22428c"/>
      <path id="Path_30" data-name="Path 30" d="M172.327,73.337H169v-4.17h3.327ZM169,77.3h3.327V97.429H169Z" transform="translate(100.495 -69.167)" fill="#22428c"/>
      <path id="Path_31" data-name="Path 31" d="M183.233,92.939l.522,2.528a12.511,12.511,0,0,1-4.09.8q-3.245,0-4.37-1.2-1.082-1.284-1.081-4.37V78.43h-2.725V75.742h2.725v-5.53h3.406v5.53h6.656l-.522,2.688h-6.174V91.1a3.85,3.85,0,0,0,.282,1.722c.265.509.908.761,1.924.761A10.23,10.23,0,0,0,183.233,92.939Z" transform="translate(104.217 -67.604)" fill="#22428c"/>
      <path id="Path_32" data-name="Path 32" d="M184.814,92.752h-.961l-7.015-20.324H180.4l5.573,16.96,5.051-16.92H194.6L188.5,91.229q-1.441,5.053-3.509,7.277a6.83,6.83,0,0,1-5.228,2.226,7.633,7.633,0,0,1-2.768-.564l.4-2.326a8.862,8.862,0,0,0,2.166.242,4.332,4.332,0,0,0,3.446-1.6A8.2,8.2,0,0,0,184.814,92.752Z" transform="translate(112.216 -64.29)" fill="#22428c"/>
      <path id="Path_33" data-name="Path 33" d="M191.788,83.287q0,6.3,2.084,8.739,2.122,2.486,6.294,2.486a35.255,35.255,0,0,0,5.972-.644l.362,2.807a27.974,27.974,0,0,1-6.7.761q-6.135,0-8.979-3.808-2.807-3.807-2.807-10.3a21.517,21.517,0,0,1,.664-5.61,12.472,12.472,0,0,1,1.742-3.968,9.091,9.091,0,0,1,2.628-2.486,10.52,10.52,0,0,1,3.167-1.345,15.229,15.229,0,0,1,3.466-.379,22.646,22.646,0,0,1,6.975,1.043l-.6,2.725a22.16,22.16,0,0,0-6.254-.881,7.338,7.338,0,0,0-5.892,2.483Q191.785,77.4,191.788,83.287Z" transform="translate(128.935 -68.614)" fill="#22428c"/>
      <path id="Path_34" data-name="Path 34" d="M205.536,93.4q-4.69,0-6.818-2.446T196.6,82.82q0-5.491,2.3-8.038t6.838-2.545q4.529,0,6.713,2.506t2.186,8.036Q214.635,93.4,205.536,93.4Zm.117-18.439a5.065,5.065,0,0,0-4.048,1.724q-1.482,1.722-1.482,6.134,0,4.166,1.343,6.012a5.382,5.382,0,0,0,8.2-.1q1.445-1.947,1.442-5.912,0-4.571-1.363-6.176A4.953,4.953,0,0,0,205.654,74.961Z" transform="translate(141.764 -64.577)" fill="#22428c"/>
      <path id="Path_35" data-name="Path 35" d="M218.417,72.428h3.369v19.2a24.755,24.755,0,0,1-8.5,1.482q-7.7,0-7.7-7.215V72.428h3.364V85.7a4.353,4.353,0,0,0,1.323,3.589,6.412,6.412,0,0,0,4.053,1.061,13.619,13.619,0,0,0,4.085-.679Z" transform="translate(155.219 -64.29)" fill="#22428c"/>
      <path id="Path_36" data-name="Path 36" d="M214.249,92.863V74.344a22.846,22.846,0,0,1,9.258-2.124q3.646,0,5.393,1.522t1.742,5.333V92.863h-3.327V79.674a5,5,0,0,0-1.023-3.586,4.282,4.282,0,0,0-3.147-1.023,14.1,14.1,0,0,0-5.533,1.083V92.863Z" transform="translate(168.166 -64.601)" fill="#22428c"/>
      <path id="Path_37" data-name="Path 37" d="M237.64,73.237l-.679,2.605a15.2,15.2,0,0,0-4.811-.721,5.357,5.357,0,0,0-4.31,1.924q-1.621,1.928-1.622,5.775,0,3.889,1.682,5.83a5.732,5.732,0,0,0,4.572,1.947,14.016,14.016,0,0,0,5.011-.963L238,92.28A16.983,16.983,0,0,1,232.35,93.4,9.968,9.968,0,0,1,225.3,90.8q-2.729-2.646-2.725-7.976,0-5.214,2.768-7.9a9.39,9.39,0,0,1,6.733-2.685A16.97,16.97,0,0,1,237.64,73.237Z" transform="translate(180.61 -64.577)" fill="#22428c"/>
      <path id="Path_38" data-name="Path 38" d="M233.527,73.337H230.2v-4.17h3.327ZM230.2,77.3h3.327V97.429H230.2Z" transform="translate(192.021 -69.167)" fill="#22428c"/>
      <path id="Path_39" data-name="Path 39" d="M233.524,93.3V69.248h3.449v23.81c0,1.31.6,1.964,1.8,1.964a8.46,8.46,0,0,0,2.406-.442l.4,2.568a11.1,11.1,0,0,1-3.648.721Q233.524,97.869,233.524,93.3Z" transform="translate(196.992 -69.046)" fill="#22428c"/>
    </g>
    <g id="Group_9" data-name="Group 9" transform="translate(8.512 5.192)">
      <g id="Group_8" data-name="Group 8" clip-path="url(#clip-path)">
        <path id="Path_40" data-name="Path 40" d="M141.309,79.839c-.117-.222-.591-.262-.784-.357a2.746,2.746,0,0,1-.854-.706,5.088,5.088,0,0,1-1.023-1.954,14.092,14.092,0,0,1-.347-3.773c0-.7.02-1.4-.012-2.091-.082-2.061.225-4.17.29-6.231.052-1.435.16-2.875.127-4.307-.02-.769.22-2.391-.145-3.082s-1.782-1.073-2.523-1.27c-1.111-.287-2.169-.574-3.259-.908-.342-.112-.7-.207-1.041-.309a3.1,3.1,0,0,0-.557-.17,43.283,43.283,0,0,1-4.876-1.225c-2.693-.579-5.39-1.106-8.071-1.732a96.947,96.947,0,0,0-11.814-1.9c-.741-.08-1.477-.015-2.214-.05l-.022.077q-.734,2.688-1.29,5.4a20.433,20.433,0,0,1,2.388-.05c5.69.806,11.322,1.64,16.917,2.977,2.71.649,5.42,1.3,8.12,1.986.644.16,1.278.334,1.939.439a9.735,9.735,0,0,1,1.086.275.935.935,0,0,1,.1.032,2.084,2.084,0,0,1,.095.492.765.765,0,0,1,.007.087c-.012.062-.022.127-.035.195a3.025,3.025,0,0,1-.287.25c-.846-.037-1.824-.354-2.56-.452-3.786-.519-7.776-1.49-11.594-2.336-.265-.06-.522-.142-.786-.2-3.9-.806-7.749-1.088-11.682-1.542a8.287,8.287,0,0,0-1.2-.052c-.524.012-1.041-.132-1.582-.07a9.347,9.347,0,0,1-1.323.032,43.486,43.486,0,0,0-.789,5.812c.272.1.651-.1.941-.132a21.655,21.655,0,0,1,2.381-.01,33.659,33.659,0,0,1,3.788.012c1.32.115,2.638.3,3.963.422,2.1.182,4.255.459,6.371.626,3.958.307,7.956.489,11.926.619,1.158.042,2.313.077,3.471.117.342.015.676.05,1.016.05a2.238,2.238,0,0,1,.674.1,3.344,3.344,0,0,1-.112.584,9.973,9.973,0,0,1-.464,1.13,7.167,7.167,0,0,0-.926.017,30.133,30.133,0,0,1-4.367.267c-2.428-.127-4.851-.23-7.272-.479-2.451-.252-4.9-.562-7.354-.721-1.34-.082-2.69-.13-4.035-.087-.539.02-1.066-.155-1.617-.165-.719-.02-1.442-.137-2.176-.15a55.457,55.457,0,0,0-6.129-.112.382.382,0,0,1-.26-.02q-.21,2.871-.22,5.747c.047,0,.087-.017.132-.02a.9.9,0,0,1,.479.1c.307-.035.616.012.918-.035a6.114,6.114,0,0,1,1.747-.01c3.107.409,6.214-.095,9.328-.022.674.02,1.345.015,2.016.015a17.178,17.178,0,0,0,1.719,0,1.692,1.692,0,0,1,.195,0c.8.055,1.6.112,2.4.15.272.012.549-.042.821-.042.719,0,1.44,0,2.161,0-.976.175-1.969.432-2.865.527-1.043.115-2.253.265-3.441.494-.442.047-.866.1-1.27.137-4.477.4-9.124,1.492-13.651.911a.638.638,0,0,0-.309.045.84.84,0,0,1-.359.03c.047,1.455.137,2.9.3,4.342q.086.771.152,1.552a3.915,3.915,0,0,1,.579-.157,26.546,26.546,0,0,1,5.518-.344c4.751.24,8.941-1.422,13.493-2.293.661-.127,1.31-.324,1.959-.469a40.069,40.069,0,0,0,9.62-3.853,21.9,21.9,0,0,1,2.673-1.258l1.47-.527c0,.192-.012.394-.012.586-.409.24-.809.482-1.2.746a22.442,22.442,0,0,1-2.68,1.485,46.328,46.328,0,0,1-8.49,3.813c-3.746,1.018-7.379,2.463-11.182,3.214a67.615,67.615,0,0,1-8.437.873,7.93,7.93,0,0,0-.846.022,7.5,7.5,0,0,1-1.512.145,1.736,1.736,0,0,0-.494.09,2.691,2.691,0,0,1-.294.057c.137,1.917.282,3.858.6,5.745a4.8,4.8,0,0,1,1.592-.3,56.591,56.591,0,0,0,14.681-2.755c2.378-.721,4.736-1.507,7.107-2.256,3.494-1.1,8-2.3,10.786-4.771l.05-.037a5.916,5.916,0,0,1-.314,2.371,2.783,2.783,0,0,1-.442.282c-.347.17-.644.434-.991.614-.686.354-1.4.679-2.094,1.016-.025.012-.047.025-.072.035-.681.369-1.36.746-2.044,1.1-2.78,1.442-5.86,2.1-8.829,3.022a118.5,118.5,0,0,1-16.069,3.344c-.327.052-.659.1-.988.16-.107.015-.207.015-.314.02a1.646,1.646,0,0,0-1.452.731c-.215.354-.422,1.707.225,1.752,4.859.367,9.573-.921,14.269-1.981a80.331,80.331,0,0,0,13.933-4.148,23.945,23.945,0,0,0,3.534-1.859c.514-.329,1-.694,1.507-1.053a16.748,16.748,0,0,1,2.134-1.442c.369-.185,2.783-.257,2.565-.958-.007-.012-.007-.027-.017-.042m-2.73-25.876a4.569,4.569,0,0,0-1.45-1.465,28.935,28.935,0,0,0-4-2.129,39.5,39.5,0,0,0-4.589-2.258,40.536,40.536,0,0,0-5.118-1.41c-1.046-.255-2.1-.509-3.162-.7-2.1-.372-4.195-.716-6.276-1.18-1.54-.342-3.072-.7-4.609-1.051a5.96,5.96,0,0,0-.873-.2c-.711-.047-1.422-.07-2.146-.067-.4,1.44-.981,2.88-1.48,4.245a7.525,7.525,0,0,1,.883-.07,13.846,13.846,0,0,1,1.907.045c.589.082,1.178.185,1.772.26,4.113.529,8.173,1.373,12.216,2.261a85.051,85.051,0,0,1,8.417,1.864c2.468.819,4.707,2.406,7.287,2.877a.811.811,0,0,0,.878-.012.8.8,0,0,0,.344-1.016m20.653,9.256a20.092,20.092,0,0,1,3.416-1.066c3.519-1,7.092-1.19,10.691-1.714,2.243-.324,4.5-.616,6.763-.843,3.646-.369,7.272-.369,10.925-.392a3.463,3.463,0,0,1,.581.015,6.942,6.942,0,0,0,.711.075,51.685,51.685,0,0,0-.332-5.42c-.319-.037-.639-.06-.953-.1a3.442,3.442,0,0,0-.542-.065c-4.073.287-8.168.265-12.223.576-.868.067-1.734.145-2.6.18-.1.01-.21,0-.307.015a74.428,74.428,0,0,0-9.49,2.1c-2.456.734-5.538,2.7-8.11,2.6,4.125-1.36,7.776-3.876,11.851-5.375,2.89-1.058,5.45-.973,8.412-1.3,1.47-.16,2.97-.052,4.454-.132,1.577-.082,3.159-.187,4.739-.337.873-.082,1.747-.177,2.62-.289a4.334,4.334,0,0,1,1.318.07,2.318,2.318,0,0,0,.5.035c-.03-.172-.057-.339-.095-.509-.359-1.684-.838-3.339-1.335-4.989a6.487,6.487,0,0,0-.941-.192,7.622,7.622,0,0,0-1.091.035,7.381,7.381,0,0,0-1.118.1c-4.382.834-8.929.629-13.339,1.32a34.547,34.547,0,0,0-3.646.769,31.25,31.25,0,0,0-11.909,6.261c-.237.2-.449.429-.669.651a19.894,19.894,0,0,1-1.687,1.59c-.422.332.03-1.472.082-1.572a9.81,9.81,0,0,1,1.455-1.879,12.2,12.2,0,0,1,2.271-1.819,36.455,36.455,0,0,1,14.993-6c1.709-.284,3.464-.347,5.193-.5s3.4-.557,5.113-.853a14.012,14.012,0,0,1,2.376-.117,14.575,14.575,0,0,1,2.238,0c-.347-1.138-.684-2.281-.983-3.431a12.977,12.977,0,0,0-1.388-.055,7.912,7.912,0,0,0-2,.542,32.805,32.805,0,0,1-4.035.866,61.23,61.23,0,0,0-12.69,3.469,11.041,11.041,0,0,0-1.106.5c-1.046.549-2.084,1.118-3.119,1.689-.8.442-1.62.843-2.368,1.35-1.38.936-2.705,1.932-4.015,2.947-1.093.853-2.273,2.126-3.678,2.416-.347.077-1.487-.142-1.622.322-.087.3.479.779.689.958a4.7,4.7,0,0,1,1.33,2.5c.334,1.205.659,2.423.883,3.653a48.9,48.9,0,0,1,.666,7.487c.037,1.412.052,2.817.06,4.232.005.769.005,1.537.017,2.313a19.941,19.941,0,0,1-.037,2.89c-.082.669-.679,1.575.19,1.947a12.422,12.422,0,0,0,1.844.5,15.483,15.483,0,0,1,2.615,1.218c2.6,1.243,5.3,2.293,7.946,3.426.848.364,1.7.731,2.565,1.048.836.312,1.7.557,2.558.839a34.3,34.3,0,0,0,6.99,1.323c1.308.142,2.6.407,3.9.549.851.087,1.719.075,2.573.112.923.042,1.1.077,1.35-.8.115-.387,1.128-4.577,1.1-4.577a.7.7,0,0,1-.127-.035,3.352,3.352,0,0,0-1.143-.17c-3.7-.152-7.479-.142-11.143-.644a58.917,58.917,0,0,1-9.336-1.969c-2.283-.694-6.628-1.487-7.012-4.4,1.879-.2,3.953,1.345,5.695,1.919,6.85,2.271,13.71,2.588,20.85,2.995.354.02.7.142,1.048.127a4.568,4.568,0,0,1,1.39.082,1.039,1.039,0,0,0,.177.02c.317-1.784.589-3.566.873-5.32.012-.07.017-.14.025-.21a5.756,5.756,0,0,0-.656,0c-2.321-.15-4.574-.245-6.893-.3-7.549-.167-15.15-2.68-22.313-4.786A2.738,2.738,0,0,1,159.7,70.6c-.02-.027,1.263-.09,1.355-.09a11.68,11.68,0,0,0,3.012-.746c2.673-.761,5.385-.819,8.115-1.233,1.892-.284,3.766-.686,5.652-1a46.732,46.732,0,0,1,11.337-.644c.566.042,1.128.175,1.7.185.319,0,1.158-.012,1.372-.309.11-.155.025-.492.03-.669,0-.387.032-.771.045-1.16.022-.749.035-1.507.032-2.263a8.516,8.516,0,0,0-.02-1.128,7.553,7.553,0,0,0-1.954-.207c-7.9-.255-15.882,1-23.645,2.336-1.687.289-3.4.4-5.068.806-1.038.25-3.269,1.759-3.219-.175a1.215,1.215,0,0,1,.791-1.081m31.207,5.837c-5.281-.681-10.818.462-16.059,1.155-1.375.18-2.745.374-4.13.514-1.188.117-2.463.137-3.631.347a4.974,4.974,0,0,1-1.373.22c1.615.172,3.249.749,4.836,1.083,1.642.337,3.319.429,4.959.719,1.807.322,3.613.646,5.43.923,3.217.489,6.438.332,9.65.649,1.4.135,1.3.007,1.48-1.43a36.934,36.934,0,0,0,.459-4.045,14.758,14.758,0,0,0-1.622-.135m-33.967.624a.163.163,0,0,1,.02.055.239.239,0,0,0,.007-.072l-.027.017m-2.59,10.159a4.362,4.362,0,0,1-.07-1c0-.674-.032-1.35-.037-2.026-.022-1.507.012-3.01.047-4.509a46.979,46.979,0,0,0-.369-8.462c-.262-1.622-.372-3.274-.776-4.869-.292-1.175-.9-3.314-2.1-3.923-.891-.454-2.313-.838-3.089,0a2.772,2.772,0,0,0-.327,2.333c.122,1.013.042,2.024.145,3.032.132,1.283.362,2.555.469,3.843.11,1.39.122,2.785.187,4.17.117,2.8.245,5.61.439,8.412q.116,1.643.267,3.289a2.1,2.1,0,0,0,.434,1.427,2.657,2.657,0,0,0,1.867.479,9.862,9.862,0,0,0,2.044-.576,2.383,2.383,0,0,0,.888-.522c.322-.389.08-.674-.017-1.1m-9.762,1.727a7.98,7.98,0,0,1-1.153-1.2c-.392-.374-.921-.537-1.335-.886a3.411,3.411,0,0,1-.893-1.175c-1.086-2.423-.581-5.493-.369-8.033a44.676,44.676,0,0,0-.389-8.205c-.245-2.4-.809-5.163-.279-7.556h.072a.736.736,0,0,1,.322-.394c.594-.347,1.278-.075,1.927-.042a12.8,12.8,0,0,1,2.313.125c1.116.257.936,1.335.936,2.238,0,.656.167,1.3.147,1.959-.042,1.684-.015,3.374.057,5.058.132,3.057.409,6.107.679,9.156.127,1.5.26,3,.367,4.509.05.649.06,1.31.135,1.954.062.6.322,1.178.339,1.787a.731.731,0,0,1-.22.634,2.87,2.87,0,0,1-2.655.075" transform="translate(130.273 47.833)" fill="#fddb00"/>
      </g>
    </g>
  </g>
</svg>
