<?xml version="1.0" encoding="utf-8"?>
<!-- Generator: Adobe Illustrator 24.2.1, SVG Export Plug-In . SVG Version: 6.00 Build 0)  -->
<svg version="1.1" id="updates-icon" xmlns="http://www.w3.org/2000/svg" xmlns:xlink="http://www.w3.org/1999/xlink" x="0px" y="0px"
	 viewBox="0 0 263.6 167" style="enable-background:new 0 0 263.6 167;" xml:space="preserve">
<style type="text/css">
	#updates-icon .st0{fill:none;stroke:#FFFFFF;stroke-width:8;stroke-miterlimit:10;}
	#updates-icon .st1{fill:none;stroke:#FFFFFF;stroke-width:8;stroke-linecap:round;stroke-miterlimit:10;}
</style>
<path class="st0" d="M171.6,14.2l-130,78.5c-1.5,0.3-2.5,1.8-2.2,3.3l5,17c0.6,1.4,2.2,2.1,3.6,1.6l151.8-4.4
	c1.5-0.3,2.5-1.8,2.2-3.3l-26.8-91.1C174.7,14.4,173.1,13.7,171.6,14.2z"/>
<line class="st1" x1="226.1" y1="43.1" x2="259.2" y2="35.7"/>
<line class="st1" x1="217" y1="81.2" x2="250.8" y2="82.8"/>
<line class="st1" x1="200.1" y1="24.3" x2="228.1" y2="5.1"/>
<path class="st0" d="M20.1,136.2l22.5-20c1.5-0.3,2.5-1.8,2.2-3.3l-5-17c-0.6-1.4-2.2-2.1-3.6-1.6L6.4,89.7C4.9,90,3.9,91.5,4.2,93
	l12.3,41.7C17,136.1,18.7,136.8,20.1,136.2z"/>
<path class="st1" d="M59.4,114.9l7.4,46c0.2,1,0.4,1.8,0.6,1.8l17-2.7c0.2,0,0.2-0.9,0.1-1.9l-6.7-42.8"/>
</svg>
